<svg width="24" height="21" viewBox="0 0 24 21" fill="none" xmlns="http://www.w3.org/2000/svg">
  <g fill-rule="evenodd" clip-rule="evenodd" fill="#26B04D">
    <path d="M5.75117 10H7.75117V16H5.75117V10Z"  />
    <path d="M10.7512 9H12.7512V17H10.7512V9Z" />
    <path d="M15.7512 10H17.7512V16H15.7512V10Z" />
    <path d="M3.52968 19L2.00026 7H4.75117H6.74966L6.75117 5C6.75117 4.43041 6.83696 2.08579 6.83696 2.08579L16.7512 2C16.7512 2 16.7512 4.43932 16.7512 5H8.75116V7H18.7512V5V3C18.7512 0.790861 17.9603 0 15.7512 0H7.75117C5.54204 0 4.75117 0.790861 4.75117 3V5H2.00026C0.803077 5 -0.125918 6.04469 0.0139623 7.23368L1.54337 19.2337C1.66187 20.2409 2.5155 21 3.52968 21H19.9727C20.9869 21 21.8405 20.2409 21.959 19.2337L23.4884 7.23368C23.6283 6.0447 22.6993 5 21.5021 5H20.7512V7H21.5021L19.9727 19H3.52968Z"/>
  </g>
</svg>
