<svg viewBox="0 0 22 18" fill="none" xmlns="http://www.w3.org/2000/svg">
<path fill-rule="evenodd" clip-rule="evenodd" d="M13.8851 0.631946C14.5634 0.361611 15.2897 0.232314 16.0196 0.251943C16.7495 0.271571 17.4678 0.439715 18.1306 0.746114C18.7932 1.05241 19.3865 1.49045 19.8742 2.03353C21.8421 4.21894 21.5095 7.59196 19.4807 9.62075L11.8839 17.2175C11.6495 17.4519 11.3315 17.5836 11 17.5836C10.6685 17.5836 10.3505 17.4519 10.1161 17.2175L2.32431 9.4257C1.80799 8.90936 1.40228 8.29324 1.13195 7.61493C0.861611 6.93661 0.732314 6.21033 0.751943 5.4804C0.771571 4.75047 0.939715 4.03219 1.24611 3.36938C1.55246 2.70669 1.9906 2.11335 2.5338 1.62555C4.71922 -0.342113 8.09205 -0.00936079 10.1208 2.01935L11 2.8986L12.0743 1.82431C12.5906 1.30799 13.2068 0.90228 13.8851 0.631946ZM15.9927 1.25158C15.3986 1.2356 14.8074 1.34085 14.2553 1.56089C13.7032 1.78093 13.2017 2.11116 12.7814 2.53142C12.7814 2.53142 12.7814 2.53141 12.7814 2.53142L11.3536 3.95926C11.1583 4.15452 10.8417 4.15452 10.6464 3.95926L9.41365 2.72646C7.70924 1.02205 4.94058 0.803966 3.20269 2.36891C2.76045 2.76599 2.40321 3.2495 2.15382 3.789C1.90442 4.32849 1.76756 4.91315 1.75158 5.50728C1.7356 6.10142 1.84085 6.69258 2.06089 7.2447C2.28093 7.79682 2.61115 8.29832 3.03141 8.7186C3.03142 8.7186 3.03141 8.71859 3.03141 8.7186L10.8232 16.5104C10.8701 16.5573 10.9337 16.5836 11 16.5836C11.0663 16.5836 11.1299 16.5573 11.1768 16.5104L18.7736 8.91365C20.478 7.20924 20.696 4.44058 19.1311 2.70269C18.734 2.26045 18.2505 1.90321 17.711 1.65382C17.1715 1.40442 16.5869 1.26756 15.9927 1.25158Z" fill="black"/>
</svg>
