<svg width="22" height="18" viewBox="0 0 22 18" fill="none" xmlns="http://www.w3.org/2000/svg">
<path fill-rule="evenodd" clip-rule="evenodd" d="M13.8851 0.631946C14.5634 0.361611 15.2897 0.232314 16.0196 0.251943C16.7495 0.271571 17.4678 0.439715 18.1306 0.746114C18.7932 1.05241 19.3865 1.49045 19.8742 2.03353C21.8421 4.21894 21.5095 7.59196 19.4807 9.62075L11.8839 17.2175C11.6495 17.4519 11.3315 17.5836 11 17.5836C10.6685 17.5836 10.3505 17.4519 10.1161 17.2175L2.32431 9.4257C1.80799 8.90936 1.40228 8.29324 1.13195 7.61493C0.861611 6.93661 0.732314 6.21033 0.751943 5.4804C0.771571 4.75047 0.939715 4.03219 1.24611 3.36938C1.55246 2.70669 1.9906 2.11335 2.5338 1.62555C4.71922 -0.342113 8.09205 -0.00936079 10.1208 2.01935L11 2.8986L12.0743 1.82431C12.5906 1.30799 13.2068 0.90228 13.8851 0.631946Z" fill="#E44C4C"/>
</svg>
